<svg xmlns="http://www.w3.org/2000/svg" width="450" height="190" viewBox="0 0 450 190" role="img" aria-label="Little company">
<title>Little company</title>
<desc>A pale-blue pixel cat with a bowl, yarn, and a little home.</desc>
<rect width="450" height="190" fill="#f3faff"/>
<rect width="450" height="158" fill="#0d1117" opacity="0.12"/>
<rect x="33" y="16" width="9" height="3" fill="#ad8625"/>
<rect x="30" y="19" width="12" height="3" fill="#ad8625"/>
<rect x="27" y="22" width="9" height="3" fill="#ad8625"/>
<rect x="27" y="25" width="9" height="3" fill="#ad8625"/>
<rect x="27" y="28" width="9" height="3" fill="#ad8625"/>
<rect x="30" y="31" width="12" height="3" fill="#ad8625"/>
<rect x="33" y="34" width="9" height="3" fill="#ad8625"/>
<rect x="120" y="72" width="3" height="3" fill="#7a9bad"><animate attributeName="opacity" values="1;0.2;1" dur="2.2s" begin="0s" repeatCount="indefinite"/></rect>
<rect x="260" y="88" width="3" height="3" fill="#7a9bad"><animate attributeName="opacity" values="1;0.2;1" dur="2.2s" begin="0.7s" repeatCount="indefinite"/></rect>
<rect x="400" y="70" width="3" height="3" fill="#7a9bad"><animate attributeName="opacity" values="1;0.2;1" dur="2.2s" begin="1.3s" repeatCount="indefinite"/></rect>
<rect x="520" y="86" width="3" height="3" fill="#7a9bad"><animate attributeName="opacity" values="1;0.2;1" dur="2.2s" begin="0.4s" repeatCount="indefinite"/></rect>
<rect x="700" y="72" width="3" height="3" fill="#7a9bad"><animate attributeName="opacity" values="1;0.2;1" dur="2.2s" begin="1.7s" repeatCount="indefinite"/></rect>
<rect x="820" y="90" width="3" height="3" fill="#7a9bad"><animate attributeName="opacity" values="1;0.2;1" dur="2.2s" begin="1s" repeatCount="indefinite"/></rect>
<line x1="0" y1="158" x2="450" y2="158" stroke="#c7dfe9" stroke-width="2" stroke-dasharray="8 8"/>
<rect x="14" y="118" width="80" height="40" fill="none" stroke="#c7dfe9" stroke-width="2"/>
<line x1="14" y1="118" x2="54" y2="106" stroke="#c7dfe9" stroke-width="2"/>
<g transform="translate(225,0)"><g><animateTransform attributeName="transform" type="translate" values="0 0;0 0;52 -10;52 0;52 0;0 0" keyTimes="0;0.660;0.690;0.780;0.860;1" dur="32s" begin="7s" repeatCount="indefinite"/><rect x="12" y="122" width="12" height="6" fill="#88b9a9"/><rect x="6" y="128" width="24" height="6" fill="#88b9a9"/><rect x="0" y="134" width="12" height="6" fill="#88b9a9"/><rect x="18" y="134" width="18" height="6" fill="#88b9a9"/><rect x="0" y="140" width="24" height="6" fill="#88b9a9"/><rect x="30" y="140" width="6" height="6" fill="#88b9a9"/><rect x="6" y="146" width="24" height="6" fill="#88b9a9"/><rect x="12" y="152" width="12" height="6" fill="#88b9a9"/></g></g>
<rect x="366" y="134" width="60" height="6" fill="#98bed5"/>
<rect x="372" y="140" width="48" height="6" fill="#98bed5"/>
<rect x="378" y="146" width="36" height="6" fill="#98bed5"/>
<rect x="384" y="128" width="6" height="6" fill="#e9b3c7"/>
<rect x="396" y="128" width="6" height="6" fill="#e9b3c7"/>
<g transform="translate(30,0)"><animateTransform attributeName="transform" type="translate" values="30 0;235 0;235 0;115 0;115 0;30 0;30 0" keyTimes="0;0.12;0.35;0.45;0.62;0.82;1" dur="32s" begin="7s" repeatCount="indefinite"/>
<g><animateTransform attributeName="transform" type="translate" values="0 0;0 -3;0 0" dur="0.7s" repeatCount="indefinite"/>
<rect x="12" y="122" width="96" height="6" fill="#98bed5"/>
<rect x="12" y="128" width="96" height="6" fill="#98bed5"/>
<rect x="12" y="134" width="96" height="6" fill="#98bed5"/>
<rect x="12" y="140" width="96" height="6" fill="#98bed5"/>
<rect x="12" y="146" width="96" height="6" fill="#98bed5"/>
<rect x="18" y="152" width="18" height="6" fill="#98bed5"/>
<rect x="48" y="152" width="24" height="6" fill="#98bed5"/>
<rect x="84" y="152" width="18" height="6" fill="#98bed5"/>
<rect x="12" y="122" width="6" height="6" fill="#649fc5"/>
<rect x="18" y="122" width="6" height="6" fill="#649fc5"/>
<rect x="24" y="122" width="6" height="6" fill="#649fc5"/>
<rect x="30" y="122" width="6" height="6" fill="#649fc5"/>
<rect x="36" y="122" width="6" height="6" fill="#649fc5"/>
<rect x="42" y="122" width="6" height="6" fill="#649fc5"/>
<rect x="48" y="122" width="6" height="6" fill="#649fc5"/>
<rect x="54" y="122" width="6" height="6" fill="#649fc5"/>
<rect x="60" y="122" width="6" height="6" fill="#649fc5"/>
<rect x="66" y="122" width="6" height="6" fill="#649fc5"/>
<rect x="72" y="122" width="6" height="6" fill="#649fc5"/>
<rect x="78" y="122" width="6" height="6" fill="#649fc5"/>
<rect x="84" y="122" width="6" height="6" fill="#649fc5"/>
<rect x="90" y="122" width="6" height="6" fill="#649fc5"/>
<rect x="96" y="122" width="6" height="6" fill="#649fc5"/>
<rect x="102" y="122" width="6" height="6" fill="#649fc5"/>
<rect x="54" y="128" width="6" height="6" fill="#eacb73"/>
<rect x="60" y="128" width="6" height="6" fill="#eacb73"/>
<g><animate attributeName="opacity" values="1;0;1" keyTimes="0;0.5;1" calcMode="discrete" dur="1.4s" repeatCount="indefinite"/><rect x="102" y="152" width="6" height="6" fill="#98bed5"/><rect x="108" y="152" width="6" height="6" fill="#98bed5"/><rect x="114" y="152" width="6" height="6" fill="#98bed5"/><rect x="114" y="146" width="6" height="6" fill="#98bed5"/></g>
<g opacity="0"><animate attributeName="opacity" values="0;1;0" keyTimes="0;0.5;1" calcMode="discrete" dur="1.4s" repeatCount="indefinite"/><rect x="114" y="152" width="6" height="6" fill="#98bed5"/><rect x="114" y="146" width="6" height="6" fill="#98bed5"/><rect x="114" y="140" width="6" height="6" fill="#98bed5"/><rect x="108" y="140" width="6" height="6" fill="#98bed5"/></g>
<g><animate attributeName="opacity" values="1;1;0;0;1" keyTimes="0;0.660;0.720;0.780;1" calcMode="discrete" dur="32s" begin="7s" repeatCount="indefinite"/><rect x="84" y="128" width="6" height="6" fill="#98bed5"/><rect x="90" y="128" width="6" height="6" fill="#98bed5"/><rect x="84" y="134" width="6" height="6" fill="#98bed5"/><rect x="90" y="134" width="6" height="6" fill="#98bed5"/></g>
<g opacity="0"><animate attributeName="opacity" values="0;0;1;1;0" keyTimes="0;0.660;0.720;0.780;1" calcMode="discrete" dur="32s" begin="7s" repeatCount="indefinite"/><rect x="96" y="134" width="6" height="6" fill="#98bed5"/><rect x="102" y="134" width="6" height="6" fill="#98bed5"/><rect x="108" y="134" width="6" height="6" fill="#98bed5"/><rect x="114" y="134" width="6" height="6" fill="#98bed5"/><rect x="114" y="128" width="6" height="6" fill="#98bed5"/></g>
<g><animateTransform attributeName="transform" type="translate" values="0 0;0 0;0 8;0 0;0 8;0 0;0 8;0 0;0 0" keyTimes="0.000;0.150;0.180;0.210;0.240;0.270;0.300;0.330;1.000" dur="32s" begin="7s" repeatCount="indefinite"/>
<rect x="24" y="68" width="12" height="6" fill="#98bed5"/>
<rect x="72" y="68" width="12" height="6" fill="#98bed5"/>
<rect x="12" y="74" width="24" height="6" fill="#98bed5"/>
<rect x="84" y="74" width="24" height="6" fill="#98bed5"/>
<rect x="12" y="80" width="96" height="6" fill="#98bed5"/>
<rect x="12" y="86" width="96" height="6" fill="#98bed5"/>
<rect x="12" y="92" width="18" height="6" fill="#98bed5"/>
<rect x="36" y="92" width="48" height="6" fill="#98bed5"/>
<rect x="90" y="92" width="18" height="6" fill="#98bed5"/>
<rect x="12" y="98" width="96" height="6" fill="#98bed5"/>
<rect x="12" y="104" width="48" height="6" fill="#98bed5"/>
<rect x="60" y="104" width="6" height="6" fill="#e9b3c7"/>
<rect x="66" y="104" width="42" height="6" fill="#98bed5"/>
<rect x="12" y="110" width="96" height="6" fill="#98bed5"/>
<rect x="12" y="116" width="96" height="6" fill="#98bed5"/>
<rect x="18" y="74" width="6" height="6" fill="#e9b3c7"/>
<rect x="24" y="74" width="6" height="6" fill="#e9b3c7"/>
<rect x="78" y="74" width="6" height="6" fill="#e9b3c7"/>
<rect x="84" y="74" width="6" height="6" fill="#e9b3c7"/>
<rect x="6" y="98" width="6" height="6" fill="#98bed5"/>
<rect x="6" y="104" width="6" height="6" fill="#98bed5"/>
<rect x="108" y="98" width="6" height="6" fill="#98bed5"/>
<rect x="108" y="104" width="6" height="6" fill="#98bed5"/>
<g><animate attributeName="opacity" values="1;0;1" keyTimes="0;0.96;1" calcMode="discrete" dur="4.2s" repeatCount="indefinite"/><rect x="30" y="92" width="6" height="6" fill="#315e7c"/><rect x="84" y="92" width="6" height="6" fill="#315e7c"/></g>
<g opacity="0"><animate attributeName="opacity" values="0;1;0" keyTimes="0;0.96;1" calcMode="discrete" dur="4.2s" repeatCount="indefinite"/><rect x="30" y="92" width="6" height="6" fill="#436176"/><rect x="84" y="92" width="6" height="6" fill="#436176"/></g>
</g>
<g opacity="0"><animate attributeName="opacity" values="1;1;0;0;1;1" keyTimes="0;0.12;0.13;0.82;0.83;1" calcMode="discrete" dur="32s" begin="7s" repeatCount="indefinite"/><g><animate attributeName="opacity" values="1;0;1" calcMode="discrete" dur="0.5s" repeatCount="indefinite"/><rect x="108" y="86" width="6" height="6" fill="#98bed5"/><rect x="114" y="80" width="6" height="6" fill="#98bed5"/><rect x="114" y="86" width="6" height="6" fill="#98bed5"/></g></g>
<g opacity="0"><animateTransform attributeName="transform" type="translate" values="0 0;6 -22" dur="2.6s" begin="0.4s" repeatCount="indefinite"/><animate attributeName="opacity" values="0;1;1;0" keyTimes="0;0.2;0.7;1" dur="2.6s" begin="0.4s" repeatCount="indefinite"/><rect x="87" y="-12" width="3" height="3" fill="#d88baa"/><rect x="93" y="-12" width="3" height="3" fill="#d88baa"/><rect x="84" y="-9" width="15" height="3" fill="#d88baa"/><rect x="84" y="-6" width="15" height="3" fill="#d88baa"/><rect x="87" y="-3" width="9" height="3" fill="#d88baa"/><rect x="90" y="0" width="3" height="3" fill="#d88baa"/></g>
<g opacity="0"><animateTransform attributeName="transform" type="translate" values="0 0;6 -22" dur="2.6s" begin="1.9s" repeatCount="indefinite"/><animate attributeName="opacity" values="0;1;1;0" keyTimes="0;0.2;0.7;1" dur="2.6s" begin="1.9s" repeatCount="indefinite"/><rect x="105" y="-24" width="3" height="3" fill="#d88baa"/><rect x="111" y="-24" width="3" height="3" fill="#d88baa"/><rect x="102" y="-21" width="15" height="3" fill="#d88baa"/><rect x="102" y="-18" width="15" height="3" fill="#d88baa"/><rect x="105" y="-15" width="9" height="3" fill="#d88baa"/><rect x="108" y="-12" width="3" height="3" fill="#d88baa"/></g>
</g></g>
</svg>