<svg xmlns="http://www.w3.org/2000/svg" width="450" height="190" viewBox="0 0 450 190" role="img" aria-label="Little company">
<title>Little company</title>
<desc>A pale-blue pixel cat with a bowl, yarn, and a little home.</desc>
<rect width="450" height="190" fill="#f3faff"/>
<rect width="450" height="158" fill="#0d1117" opacity="0.12"/>
<rect x="33" y="16" width="9" height="3" fill="#ad8625"/>
<rect x="30" y="19" width="12" height="3" fill="#ad8625"/>
<rect x="27" y="22" width="9" height="3" fill="#ad8625"/>
<rect x="27" y="25" width="9" height="3" fill="#ad8625"/>
<rect x="27" y="28" width="9" height="3" fill="#ad8625"/>
<rect x="30" y="31" width="12" height="3" fill="#ad8625"/>
<rect x="33" y="34" width="9" height="3" fill="#ad8625"/>
<rect x="120" y="72" width="3" height="3" fill="#7a9bad"><animate attributeName="opacity" values="1;0.2;1" dur="2.2s" begin="0s" repeatCount="indefinite"/></rect>
<rect x="260" y="88" width="3" height="3" fill="#7a9bad"><animate attributeName="opacity" values="1;0.2;1" dur="2.2s" begin="0.7s" repeatCount="indefinite"/></rect>
<rect x="400" y="70" width="3" height="3" fill="#7a9bad"><animate attributeName="opacity" values="1;0.2;1" dur="2.2s" begin="1.3s" repeatCount="indefinite"/></rect>
<rect x="520" y="86" width="3" height="3" fill="#7a9bad"><animate attributeName="opacity" values="1;0.2;1" dur="2.2s" begin="0.4s" repeatCount="indefinite"/></rect>
<rect x="700" y="72" width="3" height="3" fill="#7a9bad"><animate attributeName="opacity" values="1;0.2;1" dur="2.2s" begin="1.7s" repeatCount="indefinite"/></rect>
<rect x="820" y="90" width="3" height="3" fill="#7a9bad"><animate attributeName="opacity" values="1;0.2;1" dur="2.2s" begin="1s" repeatCount="indefinite"/></rect>
<line x1="0" y1="158" x2="450" y2="158" stroke="#c7dfe9" stroke-width="2" stroke-dasharray="8 8"/>
<g data-role="gentle-feeding" data-mood="hungry">
<rect x="14" y="118" width="80" height="40" fill="none" stroke="#c7dfe9" stroke-width="2"/>
<path d="M14 118 L54 106 L94 118" fill="none" stroke="#c7dfe9" stroke-width="2"/>
<g transform="translate(195 0)"><rect x="12" y="122" width="12" height="6" fill="#88b9a9"/><rect x="6" y="128" width="24" height="6" fill="#88b9a9"/><rect x="0" y="134" width="12" height="6" fill="#88b9a9"/><rect x="18" y="134" width="18" height="6" fill="#88b9a9"/><rect x="0" y="140" width="24" height="6" fill="#88b9a9"/><rect x="30" y="140" width="6" height="6" fill="#88b9a9"/><rect x="6" y="146" width="24" height="6" fill="#88b9a9"/><rect x="12" y="152" width="12" height="6" fill="#88b9a9"/></g>
<g data-role="cat-position" transform="translate(235 0)">
<g data-role="gentle-nibble">
<g data-role="cat-silhouette" shape-rendering="crispEdges">
<rect x="24" y="68" width="12" height="6" fill="#98bed5"/>
<rect x="72" y="68" width="12" height="6" fill="#98bed5"/>
<rect x="12" y="74" width="24" height="6" fill="#98bed5"/>
<rect x="84" y="74" width="24" height="6" fill="#98bed5"/>
<rect x="12" y="80" width="96" height="6" fill="#98bed5"/>
<rect x="12" y="86" width="96" height="6" fill="#98bed5"/>
<rect x="12" y="92" width="18" height="6" fill="#98bed5"/>
<rect x="30" y="92" width="6" height="6" fill="#98bed5"/>
<rect x="36" y="92" width="48" height="6" fill="#98bed5"/>
<rect x="84" y="92" width="6" height="6" fill="#98bed5"/>
<rect x="90" y="92" width="18" height="6" fill="#98bed5"/>
<rect x="12" y="98" width="96" height="6" fill="#98bed5"/>
<rect x="12" y="104" width="48" height="6" fill="#98bed5"/>
<rect x="60" y="104" width="6" height="6" fill="#e9b3c7"/>
<rect x="66" y="104" width="42" height="6" fill="#98bed5"/>
<rect x="12" y="110" width="96" height="6" fill="#98bed5"/>
<rect x="12" y="116" width="96" height="6" fill="#98bed5"/>
<rect x="12" y="122" width="96" height="6" fill="#98bed5"/>
<rect x="12" y="128" width="96" height="6" fill="#98bed5"/>
<rect x="12" y="134" width="96" height="6" fill="#98bed5"/>
<rect x="12" y="140" width="96" height="6" fill="#98bed5"/>
<rect x="12" y="146" width="96" height="6" fill="#98bed5"/>
<rect x="18" y="152" width="18" height="6" fill="#98bed5"/>
<rect x="48" y="152" width="24" height="6" fill="#98bed5"/>
<rect x="84" y="152" width="18" height="6" fill="#98bed5"/>
<rect x="18" y="74" width="6" height="6" fill="#e9b3c7"/>
<rect x="24" y="74" width="6" height="6" fill="#e9b3c7"/>
<rect x="78" y="74" width="6" height="6" fill="#e9b3c7"/>
<rect x="84" y="74" width="6" height="6" fill="#e9b3c7"/>
<rect x="6" y="98" width="6" height="6" fill="#98bed5"/>
<rect x="6" y="104" width="6" height="6" fill="#98bed5"/>
<rect x="108" y="98" width="6" height="6" fill="#98bed5"/>
<rect x="108" y="104" width="6" height="6" fill="#98bed5"/>
<rect x="12" y="122" width="6" height="6" fill="#649fc5"/>
<rect x="18" y="122" width="6" height="6" fill="#649fc5"/>
<rect x="24" y="122" width="6" height="6" fill="#649fc5"/>
<rect x="30" y="122" width="6" height="6" fill="#649fc5"/>
<rect x="36" y="122" width="6" height="6" fill="#649fc5"/>
<rect x="42" y="122" width="6" height="6" fill="#649fc5"/>
<rect x="48" y="122" width="6" height="6" fill="#649fc5"/>
<rect x="54" y="122" width="6" height="6" fill="#649fc5"/>
<rect x="60" y="122" width="6" height="6" fill="#649fc5"/>
<rect x="66" y="122" width="6" height="6" fill="#649fc5"/>
<rect x="72" y="122" width="6" height="6" fill="#649fc5"/>
<rect x="78" y="122" width="6" height="6" fill="#649fc5"/>
<rect x="84" y="122" width="6" height="6" fill="#649fc5"/>
<rect x="90" y="122" width="6" height="6" fill="#649fc5"/>
<rect x="96" y="122" width="6" height="6" fill="#649fc5"/>
<rect x="102" y="122" width="6" height="6" fill="#649fc5"/>
<rect x="54" y="128" width="6" height="6" fill="#eacb73"/>
<rect x="60" y="128" width="6" height="6" fill="#eacb73"/>
<g><animate attributeName="opacity" values="1;0;1" keyTimes="0;0.5;1" calcMode="discrete" dur="4s" repeatCount="indefinite"/><rect x="102" y="152" width="6" height="6" fill="#98bed5"/><rect x="108" y="152" width="6" height="6" fill="#98bed5"/><rect x="114" y="152" width="6" height="6" fill="#98bed5"/><rect x="114" y="146" width="6" height="6" fill="#98bed5"/></g>
<g opacity="0"><animate attributeName="opacity" values="0;1;0" keyTimes="0;0.5;1" calcMode="discrete" dur="4s" repeatCount="indefinite"/><rect x="114" y="152" width="6" height="6" fill="#98bed5"/><rect x="114" y="146" width="6" height="6" fill="#98bed5"/><rect x="114" y="140" width="6" height="6" fill="#98bed5"/><rect x="108" y="140" width="6" height="6" fill="#98bed5"/></g>
</g>
<rect x="22" y="103" width="12" height="5" rx="2.5" fill="#e9b3c7" opacity="0.7"/><rect x="85" y="103" width="12" height="5" rx="2.5" fill="#e9b3c7" opacity="0.7"/>
<g data-face="hungry" fill="none" stroke="#315e7c" stroke-width="2.5" stroke-linecap="round" stroke-linejoin="round"><path d="M27 94 Q33 99 39 96 M78 96 Q84 99 90 94"/><path d="M53 114 Q59 109 65 114"/></g>
</g>
</g>
<g data-role="food-bowl" data-food-level="0"><ellipse cx="396" cy="156" rx="40" ry="4" fill="#c7dfe9" opacity="0.4"/><path d="M362 133 Q396 123 430 133 L419 153 Q396 162 373 153Z" fill="#98bed5" stroke="#649fc5" stroke-width="2"/><ellipse cx="396" cy="133" rx="32" ry="7" fill="#f3faff" stroke="#649fc5" stroke-width="2"/><defs><clipPath id="meal-fill"><rect x="367" y="138" width="58" height="0" /></clipPath></defs><g data-role="food-portions" clip-path="url(#meal-fill)"><rect x="370" y="132" width="6" height="5" rx="2" fill="#e9b3c7"/><rect x="378" y="132" width="6" height="5" rx="2" fill="#eacb73"/><rect x="386" y="132" width="6" height="5" rx="2" fill="#eacb73"/><rect x="394" y="132" width="6" height="5" rx="2" fill="#e9b3c7"/><rect x="402" y="132" width="6" height="5" rx="2" fill="#eacb73"/><rect x="410" y="132" width="6" height="5" rx="2" fill="#eacb73"/><rect x="372" y="126" width="6" height="5" rx="2" fill="#eacb73"/><rect x="380" y="126" width="6" height="5" rx="2" fill="#eacb73"/><rect x="388" y="126" width="6" height="5" rx="2" fill="#e9b3c7"/><rect x="396" y="126" width="6" height="5" rx="2" fill="#eacb73"/><rect x="404" y="126" width="6" height="5" rx="2" fill="#eacb73"/><rect x="412" y="126" width="6" height="5" rx="2" fill="#e9b3c7"/><rect x="370" y="120" width="6" height="5" rx="2" fill="#eacb73"/><rect x="378" y="120" width="6" height="5" rx="2" fill="#e9b3c7"/><rect x="386" y="120" width="6" height="5" rx="2" fill="#eacb73"/><rect x="394" y="120" width="6" height="5" rx="2" fill="#eacb73"/><rect x="402" y="120" width="6" height="5" rx="2" fill="#e9b3c7"/><rect x="410" y="120" width="6" height="5" rx="2" fill="#eacb73"/><rect x="380" y="114" width="5" height="5" rx="2" fill="#eacb73"/><rect x="388" y="114" width="5" height="5" rx="2" fill="#eacb73"/><rect x="396" y="114" width="5" height="5" rx="2" fill="#e9b3c7"/><rect x="404" y="114" width="5" height="5" rx="2" fill="#eacb73"/></g><path d="M392 143 Q392 140 396 143 Q400 140 400 143 Q400 146 396 149 Q392 146 392 143" fill="#f3faff"/></g>
<g data-role="hungry-reminder" opacity="1"><animate attributeName="opacity" values="0;0;1;1;0;0" keyTimes="0;0.18;0.22;0.47;0.51;1" dur="24s" repeatCount="indefinite"/><rect x="237" y="16" width="156" height="32" rx="8" fill="#f3faff" stroke="#c7dfe9" stroke-width="1.5"/><path d="M265 48 L273 55 L278 48" fill="#f3faff" stroke="#c7dfe9" stroke-width="1.5"/><text x="315" y="37" text-anchor="middle" font-family="Microsoft YaHei, PingFang SC, sans-serif" font-size="15" fill="#436176">&#x7B49;&#x4E00;&#x53E3;&#x996D;&#x996D;~</text></g>
</g>
</svg>