<svg xmlns="http://www.w3.org/2000/svg" width="450" height="190" viewBox="0 0 450 190" role="img" aria-label="Little company">
<title>Little company</title>
<desc>A pale-blue pixel cat with a bowl, yarn, and a little home.</desc>
<rect width="450" height="190" fill="#0d1117"/>
<line x1="0" y1="158" x2="450" y2="158" stroke="#344b5b" stroke-width="2" stroke-dasharray="8 8"/>
<g data-role="gentle-feeding" data-mood="hungry" data-play-seed="1791351704" data-play-actions="chase,tap,tug">
<rect x="14" y="118" width="80" height="40" fill="none" stroke="#344b5b" stroke-width="2"/>
<path d="M14 118 L54 106 L94 118" fill="none" stroke="#344b5b" stroke-width="2"/>
<g data-role="play-yarn" transform="translate(195 0)"><g><animateTransform attributeName="transform" type="translate" values="0 0;0 0;21 0;21 0;0 0;0 0;0 0;9 0;9 0;0 0;0 0;0 0;-8 0;-8 0;0 0;0 0;0 0" keyTimes="0.000000;0.337500;0.350000;0.375000;0.400000;0.412500;0.500000;0.510000;0.522500;0.537500;0.550000;0.675000;0.685000;0.697500;0.712500;0.725000;1.000000" dur="80s" repeatCount="indefinite" calcMode="spline" keySplines="0.4 0 0.2 1;0.4 0 0.2 1;0.4 0 0.2 1;0.4 0 0.2 1;0.4 0 0.2 1;0.4 0 0.2 1;0.4 0 0.2 1;0.4 0 0.2 1;0.4 0 0.2 1;0.4 0 0.2 1;0.4 0 0.2 1;0.4 0 0.2 1;0.4 0 0.2 1;0.4 0 0.2 1;0.4 0 0.2 1;0.4 0 0.2 1"/><path data-role="yarn-thread" d="M18 145 Q5 157 -7 145" fill="none" stroke="#aacbbf" stroke-width="2" opacity="0"><animate attributeName="opacity" values="0;0;1;1;0;0;1;1;0;0;1;1;0;0" keyTimes="0.000000;0.368750;0.372500;0.400000;0.403750;0.497500;0.500000;0.535000;0.540000;0.672500;0.675000;0.710000;0.715000;1.000000" dur="80s" repeatCount="indefinite"/></path><g shape-rendering="crispEdges"><animateTransform attributeName="transform" type="rotate" values="0 18 140;0 18 140;63 18 140;63 18 140;0 18 140;0 18 140;0 18 140;27 18 140;27 18 140;0 18 140;0 18 140;0 18 140;-24 18 140;-24 18 140;0 18 140;0 18 140;0 18 140" keyTimes="0.000000;0.337500;0.350000;0.375000;0.400000;0.412500;0.500000;0.510000;0.522500;0.537500;0.550000;0.675000;0.685000;0.697500;0.712500;0.725000;1.000000" dur="80s" repeatCount="indefinite" calcMode="spline" keySplines="0.4 0 0.2 1;0.4 0 0.2 1;0.4 0 0.2 1;0.4 0 0.2 1;0.4 0 0.2 1;0.4 0 0.2 1;0.4 0 0.2 1;0.4 0 0.2 1;0.4 0 0.2 1;0.4 0 0.2 1;0.4 0 0.2 1;0.4 0 0.2 1;0.4 0 0.2 1;0.4 0 0.2 1;0.4 0 0.2 1;0.4 0 0.2 1"/><rect x="12" y="122" width="12" height="6" fill="#aacbbf"/><rect x="6" y="128" width="24" height="6" fill="#aacbbf"/><rect x="0" y="134" width="12" height="6" fill="#aacbbf"/><rect x="18" y="134" width="18" height="6" fill="#aacbbf"/><rect x="0" y="140" width="24" height="6" fill="#aacbbf"/><rect x="30" y="140" width="6" height="6" fill="#aacbbf"/><rect x="6" y="146" width="24" height="6" fill="#aacbbf"/><rect x="12" y="152" width="12" height="6" fill="#aacbbf"/></g></g></g>
<g data-role="cat-position" transform="translate(235 0)">
<animateTransform attributeName="transform" type="translate" values="235 0;235 0;235 0;235 0;63 0;63 0;63 0;84 0;84 0;63 0;63 0;63 0;235 0;235 0" keyTimes="0.000000;0.037500;0.087500;0.225000;0.275000;0.337500;0.346250;0.362500;0.375000;0.400000;0.412500;0.812500;0.900000;1.000000" dur="80s" repeatCount="indefinite" calcMode="spline" keySplines="0.4 0 0.2 1;0.4 0 0.2 1;0.4 0 0.2 1;0.4 0 0.2 1;0.4 0 0.2 1;0.4 0 0.2 1;0.4 0 0.2 1;0.4 0 0.2 1;0.4 0 0.2 1;0.4 0 0.2 1;0.4 0 0.2 1;0.4 0 0.2 1;0.4 0 0.2 1"/>
<g data-role="play-hop"><animateTransform attributeName="transform" type="translate" values="0 0;0 0;0 -1;0 0;0 0" keyTimes="0.000000;0.346250;0.351250;0.357500;1.000000" dur="80s" repeatCount="indefinite" calcMode="spline" keySplines="0.4 0 0.2 1;0.4 0 0.2 1;0.4 0 0.2 1;0.4 0 0.2 1"/>
<g data-role="gentle-nibble">
<g data-role="cat-silhouette" shape-rendering="crispEdges">
<rect x="24" y="68" width="12" height="6" fill="#c9e6f4"/>
<rect x="72" y="68" width="12" height="6" fill="#c9e6f4"/>
<rect x="12" y="74" width="24" height="6" fill="#c9e6f4"/>
<rect x="84" y="74" width="24" height="6" fill="#c9e6f4"/>
<rect x="12" y="80" width="96" height="6" fill="#c9e6f4"/>
<rect x="12" y="86" width="96" height="6" fill="#c9e6f4"/>
<rect x="12" y="92" width="18" height="6" fill="#c9e6f4"/>
<rect x="30" y="92" width="6" height="6" fill="#c9e6f4"/>
<rect x="36" y="92" width="48" height="6" fill="#c9e6f4"/>
<rect x="84" y="92" width="6" height="6" fill="#c9e6f4"/>
<rect x="90" y="92" width="18" height="6" fill="#c9e6f4"/>
<rect x="12" y="98" width="96" height="6" fill="#c9e6f4"/>
<rect x="12" y="104" width="48" height="6" fill="#c9e6f4"/>
<rect x="60" y="104" width="6" height="6" fill="#efb8cb"/>
<rect x="66" y="104" width="42" height="6" fill="#c9e6f4"/>
<rect x="12" y="110" width="96" height="6" fill="#c9e6f4"/>
<rect x="12" y="116" width="96" height="6" fill="#c9e6f4"/>
<rect x="12" y="122" width="96" height="6" fill="#c9e6f4"/>
<rect x="12" y="128" width="96" height="6" fill="#c9e6f4"/>
<rect x="12" y="134" width="96" height="6" fill="#c9e6f4"/>
<rect x="12" y="140" width="96" height="6" fill="#c9e6f4"/>
<rect x="12" y="146" width="96" height="6" fill="#c9e6f4"/>
<rect x="18" y="152" width="18" height="6" fill="#c9e6f4"/>
<rect x="48" y="152" width="24" height="6" fill="#c9e6f4"/>
<rect x="84" y="152" width="18" height="6" fill="#c9e6f4"/>
<rect x="18" y="74" width="6" height="6" fill="#efb8cb"/>
<rect x="24" y="74" width="6" height="6" fill="#efb8cb"/>
<rect x="78" y="74" width="6" height="6" fill="#efb8cb"/>
<rect x="84" y="74" width="6" height="6" fill="#efb8cb"/>
<rect x="6" y="98" width="6" height="6" fill="#c9e6f4"/>
<rect x="6" y="104" width="6" height="6" fill="#c9e6f4"/>
<rect x="108" y="98" width="6" height="6" fill="#c9e6f4"/>
<rect x="108" y="104" width="6" height="6" fill="#c9e6f4"/>
<rect x="12" y="122" width="6" height="6" fill="#77bde6"/>
<rect x="18" y="122" width="6" height="6" fill="#77bde6"/>
<rect x="24" y="122" width="6" height="6" fill="#77bde6"/>
<rect x="30" y="122" width="6" height="6" fill="#77bde6"/>
<rect x="36" y="122" width="6" height="6" fill="#77bde6"/>
<rect x="42" y="122" width="6" height="6" fill="#77bde6"/>
<rect x="48" y="122" width="6" height="6" fill="#77bde6"/>
<rect x="54" y="122" width="6" height="6" fill="#77bde6"/>
<rect x="60" y="122" width="6" height="6" fill="#77bde6"/>
<rect x="66" y="122" width="6" height="6" fill="#77bde6"/>
<rect x="72" y="122" width="6" height="6" fill="#77bde6"/>
<rect x="78" y="122" width="6" height="6" fill="#77bde6"/>
<rect x="84" y="122" width="6" height="6" fill="#77bde6"/>
<rect x="90" y="122" width="6" height="6" fill="#77bde6"/>
<rect x="96" y="122" width="6" height="6" fill="#77bde6"/>
<rect x="102" y="122" width="6" height="6" fill="#77bde6"/>
<rect x="54" y="128" width="6" height="6" fill="#f4dc97"/>
<rect x="60" y="128" width="6" height="6" fill="#f4dc97"/>
<g><animate attributeName="opacity" values="1;0;1" keyTimes="0;0.5;1" calcMode="discrete" dur="4s" repeatCount="indefinite"/><rect x="102" y="152" width="6" height="6" fill="#c9e6f4"/><rect x="108" y="152" width="6" height="6" fill="#c9e6f4"/><rect x="114" y="152" width="6" height="6" fill="#c9e6f4"/><rect x="114" y="146" width="6" height="6" fill="#c9e6f4"/></g>
<g opacity="0"><animate attributeName="opacity" values="0;1;0" keyTimes="0;0.5;1" calcMode="discrete" dur="4s" repeatCount="indefinite"/><rect x="114" y="152" width="6" height="6" fill="#c9e6f4"/><rect x="114" y="146" width="6" height="6" fill="#c9e6f4"/><rect x="114" y="140" width="6" height="6" fill="#c9e6f4"/><rect x="108" y="140" width="6" height="6" fill="#c9e6f4"/></g>
</g>
<rect x="22" y="103" width="12" height="5" rx="2.5" fill="#efb8cb" opacity="0.7"/><rect x="85" y="103" width="12" height="5" rx="2.5" fill="#efb8cb" opacity="0.7"/>
<g opacity="1"><animate attributeName="opacity" values="1;1;0;0;1;1" keyTimes="0.000000;0.262500;0.275000;0.812500;0.850000;1.000000" dur="80s" repeatCount="indefinite"/><g data-face="hungry" fill="none" stroke="#77bde6" stroke-width="2.5" stroke-linecap="round" stroke-linejoin="round"><path d="M27 94 Q33 99 39 96 M78 96 Q84 99 90 94"/><path d="M53 114 Q59 109 65 114"/></g></g>
<g opacity="0"><animate attributeName="opacity" values="0;0;1;1;0;0" keyTimes="0.000000;0.262500;0.275000;0.812500;0.850000;1.000000" dur="80s" repeatCount="indefinite"/><g data-face="calm" fill="none" stroke="#77bde6" stroke-width="2.5" stroke-linecap="round" stroke-linejoin="round"><path d="M33 93 L33 97 M84 93 L84 97"/><path d="M48 109 Q48 117 54 115 Q60 114 60 109 Q60 117 66 115 Q72 114 72 109"/></g></g>
<g data-role="play-paw" opacity="0"><animate attributeName="opacity" values="0;0;1;1;0;0;1;1;0;0;1;1;0;0;1;1;0;0" keyTimes="0.000000;0.335000;0.337500;0.343750;0.347500;0.368750;0.372500;0.400000;0.403750;0.497500;0.500000;0.535000;0.540000;0.672500;0.675000;0.710000;0.715000;1.000000" dur="80s" repeatCount="indefinite"/><path d="M96 136 Q113 143 130 142" fill="none" stroke="#77bde6" stroke-width="8" stroke-linecap="round"/><ellipse cx="132" cy="142" rx="6" ry="5" fill="#c9e6f4"/></g>
</g></g>
</g>
<g data-role="food-bowl" data-food-level="0"><ellipse cx="396" cy="156" rx="40" ry="4" fill="#344b5b" opacity="0.4"/><path d="M362 133 Q396 123 430 133 L419 153 Q396 162 373 153Z" fill="#c9e6f4" stroke="#77bde6" stroke-width="2"/><ellipse cx="396" cy="133" rx="32" ry="7" fill="#0d1117" stroke="#77bde6" stroke-width="2"/><defs><clipPath id="meal-fill"><rect x="367" y="138" width="58" height="0" /></clipPath></defs><g data-role="food-portions" clip-path="url(#meal-fill)"><rect x="370" y="132" width="6" height="5" rx="2" fill="#efb8cb"/><rect x="378" y="132" width="6" height="5" rx="2" fill="#f4dc97"/><rect x="386" y="132" width="6" height="5" rx="2" fill="#f4dc97"/><rect x="394" y="132" width="6" height="5" rx="2" fill="#efb8cb"/><rect x="402" y="132" width="6" height="5" rx="2" fill="#f4dc97"/><rect x="410" y="132" width="6" height="5" rx="2" fill="#f4dc97"/><rect x="372" y="126" width="6" height="5" rx="2" fill="#f4dc97"/><rect x="380" y="126" width="6" height="5" rx="2" fill="#f4dc97"/><rect x="388" y="126" width="6" height="5" rx="2" fill="#efb8cb"/><rect x="396" y="126" width="6" height="5" rx="2" fill="#f4dc97"/><rect x="404" y="126" width="6" height="5" rx="2" fill="#f4dc97"/><rect x="412" y="126" width="6" height="5" rx="2" fill="#efb8cb"/><rect x="370" y="120" width="6" height="5" rx="2" fill="#f4dc97"/><rect x="378" y="120" width="6" height="5" rx="2" fill="#efb8cb"/><rect x="386" y="120" width="6" height="5" rx="2" fill="#f4dc97"/><rect x="394" y="120" width="6" height="5" rx="2" fill="#f4dc97"/><rect x="402" y="120" width="6" height="5" rx="2" fill="#efb8cb"/><rect x="410" y="120" width="6" height="5" rx="2" fill="#f4dc97"/><rect x="380" y="114" width="5" height="5" rx="2" fill="#f4dc97"/><rect x="388" y="114" width="5" height="5" rx="2" fill="#f4dc97"/><rect x="396" y="114" width="5" height="5" rx="2" fill="#efb8cb"/><rect x="404" y="114" width="5" height="5" rx="2" fill="#f4dc97"/></g><path d="M392 143 Q392 140 396 143 Q400 140 400 143 Q400 146 396 149 Q392 146 392 143" fill="#0d1117"/></g>
<g data-role="hungry-reminder" opacity="1"><animate attributeName="opacity" values="0;0;1;1;0;0;1;1;0;0" keyTimes="0.000000;0.037500;0.050000;0.125000;0.137500;0.912500;0.925000;0.975000;0.987500;1.000000" dur="80s" repeatCount="indefinite"/><rect x="237" y="16" width="156" height="32" rx="8" fill="#0d1117" stroke="#344b5b" stroke-width="1.5"/><path d="M265 48 L273 55 L278 48" fill="#0d1117" stroke="#344b5b" stroke-width="1.5"/><text x="315" y="37" text-anchor="middle" font-family="Segoe UI, Arial, sans-serif" font-size="15" fill="#b3c6d2">A little snack?</text></g>
</g>
</svg>